<svg xmlns="http://www.w3.org/2000/svg" width="400" height="400" viewBox="0 0 400 400"><path fill="#e3e3e3" d="M100 37L79 58L58 37L79 16ZM121 58L100 37L121 16L142 37ZM100 163L121 142L142 163L121 184ZM79 142L100 163L79 184L58 163ZM58 79L37 100L16 79L37 58ZM163 100L142 79L163 58L184 79ZM142 121L163 100L184 121L163 142ZM37 100L58 121L37 142L16 121Z"></path><path fill="#59c79d" d="M23 37a14,14 0 1,1 28,0a14,14 0 1,1 -28,0M149 37a14,14 0 1,1 28,0a14,14 0 1,1 -28,0M149 163a14,14 0 1,1 28,0a14,14 0 1,1 -28,0M23 163a14,14 0 1,1 28,0a14,14 0 1,1 -28,0"></path><path fill="#464646" d="M58 58L100 58L100 100L58 100ZM84.9 95.8L95.8 74L74 74ZM142 58L142 100L100 100L100 58ZM104.2 84.9L126 95.8L126 74ZM142 142L100 142L100 100L142 100ZM115.1 104.2L104.2 126L126 126ZM58 142L58 100L100 100L100 142ZM95.8 115.1L74 104.2L74 126Z"></path></svg>
