<?xml version="1.0" standalone="no"?>
<!DOCTYPE svg PUBLIC "-//W3C//DTD SVG 20010904//EN"
 "http://www.w3.org/TR/2001/REC-SVG-20010904/DTD/svg10.dtd">
<svg version="1.0" xmlns="http://www.w3.org/2000/svg"
 width="420.000000pt" height="420.000000pt" viewBox="0 0 420.000000 420.000000"
 preserveAspectRatio="xMidYMid meet">
<metadata>
Created by potrace 1.11, written by Peter Selinger 2001-2013
</metadata>
<g transform="translate(0.000000,420.000000) scale(0.100000,-0.100000)"
fill="#000000" stroke="none">
<path d="M350 2795 l0 -1055 1755 0 1755 0 0 1055 0 1055 -1755 0 -1755 0 0
-1055z m2800 0 l0 -345 -1045 0 -1045 0 0 345 0 345 1045 0 1045 0 0 -345z"/>
<path d="M350 695 l0 -355 705 0 705 0 0 355 0 355 -705 0 -705 0 0 -355z"/>
<path d="M2450 695 l0 -355 705 0 705 0 0 355 0 355 -705 0 -705 0 0 -355z"/>
</g>
</svg>
