<?xml version="1.0" encoding="UTF-8"?>
<!-- Created with Inkscape (http://www.inkscape.org/) -->
<svg width="810" height="430" version="1.0" xmlns="http://www.w3.org/2000/svg">
 <g transform="translate(.17034 11.015)">
  <g fill="#e0f7ff" stroke="#000" stroke-linejoin="round" stroke-miterlimit="4.4" stroke-width="1.6575">
   <rect x="6.5126" y="43.773" width="72.352" height="72.352"/>
   <rect x="6.5126" y="116.1" width="72.352" height="72.352"/>
   <rect x="6.4698" y="188.48" width="72.352" height="72.352"/>
   <rect x="6.4698" y="260.81" width="72.352" height="72.352"/>
   <rect x="78.816" y="43.683" width="72.352" height="72.352"/>
   <rect x="78.816" y="116.01" width="72.352" height="72.352"/>
   <rect x="78.774" y="188.39" width="72.352" height="72.352"/>
   <rect x="78.774" y="260.72" width="72.352" height="72.352"/>
   <rect x="151.16" y="43.687" width="72.352" height="72.352"/>
   <rect x="151.16" y="116.01" width="72.352" height="72.352"/>
   <rect x="151.11" y="188.39" width="72.352" height="72.352"/>
   <rect x="151.11" y="260.72" width="72.352" height="72.352"/>
  </g>
  <g stroke="#000">
   <g transform="matrix(.84963 0 0 .84963 -44.533 -116.21)">
    <rect x="131.04" y="129.08" width="110.28" height="110.28" fill="#ffd589" stroke-linejoin="round" stroke-miterlimit="4.4" stroke-width="3.6434"/>
    <path d="m138.36 240.48v8.2988l114.14 0.09846-0.19692-114.09h-9.2553l-0.29538 106.15-104.4-0.46418z" color="black" stroke-linecap="round"/>
   </g>
   <g transform="matrix(.84963 0 0 .84963 -44.605 -22.345)">
    <rect x="131.04" y="129.08" width="110.28" height="110.28" fill="#ffd589" stroke-linejoin="round" stroke-miterlimit="4.4" stroke-width="3.6434"/>
    <path d="m138.36 240.48v8.2988l114.14 0.09846-0.19692-114.09h-9.2553l-0.29538 106.15-104.4-0.46418z" color="black" stroke-linecap="round"/>
   </g>
   <g transform="matrix(.84963 0 0 .84963 -44.519 71.408)">
    <rect x="131.04" y="129.08" width="110.28" height="110.28" fill="#ffd589" stroke-linejoin="round" stroke-miterlimit="4.4" stroke-width="3.6434"/>
    <path d="m138.36 240.48v8.2988l114.14 0.09846-0.19692-114.09h-9.2553l-0.29538 106.15-104.4-0.46418z" color="black" stroke-linecap="round"/>
   </g>
   <g transform="matrix(.84963 0 0 .84963 -44.387 165.13)">
    <rect x="131.04" y="129.08" width="110.28" height="110.28" fill="#ffd589" stroke-linejoin="round" stroke-miterlimit="4.4" stroke-width="3.6434"/>
    <path d="m138.36 240.48v8.2988l114.14 0.09846-0.19692-114.09h-9.2553l-0.29538 106.15-104.4-0.46418z" color="black" stroke-linecap="round"/>
   </g>
  </g>
  <g fill="#e0f7ff" stroke="#000" stroke-linejoin="round" stroke-miterlimit="4.4" stroke-width="1.6575">
   <rect x="223.46" y="43.597" width="72.352" height="72.352"/>
   <rect x="223.46" y="115.92" width="72.352" height="72.352"/>
   <rect x="223.42" y="188.3" width="72.352" height="72.352"/>
   <rect x="223.42" y="260.63" width="72.352" height="72.352"/>
  </g>
  <g fill="black" font-family="Tahoma" stroke-linecap="round" text-anchor="middle">
   <text x="198.75504" y="169.2838" color="black" font-size="21.176px" text-align="center" style="block-progression:tb;line-height:100%;text-indent:0;text-transform:none" xml:space="preserve"><tspan x="198.75504" y="169.2838">1,2</tspan></text>
   <g font-size="35.521px">
    <text x="29.999348" y="85.343491" color="black" text-align="center" style="block-progression:tb;line-height:100%;text-indent:0;text-transform:none" xml:space="preserve"><tspan x="29.999348" y="85.343491">a</tspan></text>
    <text x="175.35286" y="85.343491" color="black" text-align="center" style="block-progression:tb;line-height:100%;text-indent:0;text-transform:none" xml:space="preserve"><tspan x="175.35286" y="85.343491">a</tspan></text>
    <text x="248.27455" y="85.343491" color="black" text-align="center" style="block-progression:tb;line-height:100%;text-indent:0;text-transform:none" xml:space="preserve"><tspan x="248.27455" y="85.343491">a</tspan></text>
    <text x="248.27455" y="157.83749" color="black" text-align="center" style="block-progression:tb;line-height:100%;text-indent:0;text-transform:none" xml:space="preserve"><tspan x="248.27455" y="157.83749">a</tspan></text>
    <text x="175.35286" y="157.83749" color="black" text-align="center" style="block-progression:tb;line-height:100%;text-indent:0;text-transform:none" xml:space="preserve"><tspan x="175.35286" y="157.83749">a</tspan></text>
   </g>
  </g>
  <g transform="translate(-1.5768 -20.499)" fill="black" font-family="Tahoma" stroke-linecap="round" text-anchor="middle">
   <text x="126.59309" y="169.2838" color="black" font-size="21.176px" text-align="center" style="block-progression:tb;line-height:100%;text-indent:0;text-transform:none" xml:space="preserve"><tspan x="126.59309" y="169.2838">1,1</tspan></text>
   <text x="102.21731" y="157.83749" color="black" font-size="35.521px" text-align="center" style="block-progression:tb;line-height:100%;text-indent:0;text-transform:none" xml:space="preserve"><tspan x="102.21731" y="157.83749">a</tspan></text>
  </g>
  <text x="30.151022" y="157.83749" color="black" fill="black" font-family="Tahoma" font-size="35.521px" stroke-linecap="round" text-align="center" text-anchor="middle" style="block-progression:tb;line-height:100%;text-indent:0;text-transform:none" xml:space="preserve"><tspan x="30.151022" y="157.83749">a</tspan></text>
  <text x="30.151022" y="230.25673" color="black" fill="black" font-family="Tahoma" font-size="35.521px" stroke-linecap="round" text-align="center" text-anchor="middle" style="block-progression:tb;line-height:100%;text-indent:0;text-transform:none" xml:space="preserve"><tspan x="30.151022" y="230.25673">a</tspan></text>
  <g transform="translate(-3.1536 1.5768)" fill="black" font-family="Tahoma" stroke-linecap="round" text-anchor="middle">
   <text x="125.99637" y="241.35741" color="black" font-size="21.176px" text-align="center" style="block-progression:tb;line-height:100%;text-indent:0;text-transform:none" xml:space="preserve"><tspan x="125.99637" y="241.35741">2,1</tspan></text>
   <text x="102.64504" y="230.11765" color="black" font-size="35.521px" text-align="center" style="block-progression:tb;line-height:100%;text-indent:0;text-transform:none" xml:space="preserve"><tspan x="102.64504" y="230.11765">a</tspan></text>
  </g>
  <g fill="black" font-family="Tahoma" stroke-linecap="round" text-anchor="middle">
   <g font-size="35.521px">
    <text x="175.35286" y="230.11765" color="black" text-align="center" style="block-progression:tb;line-height:100%;text-indent:0;text-transform:none" xml:space="preserve"><tspan x="175.35286" y="230.11765">a</tspan></text>
    <text x="247.84689" y="230.11765" color="black" text-align="center" style="block-progression:tb;line-height:100%;text-indent:0;text-transform:none" xml:space="preserve"><tspan x="247.84689" y="230.11765">a</tspan></text>
    <text x="247.84689" y="302.96454" color="black" text-align="center" style="block-progression:tb;line-height:100%;text-indent:0;text-transform:none" xml:space="preserve"><tspan x="247.84689" y="302.96454">a</tspan></text>
    <text x="175.13899" y="303.03934" color="black" text-align="center" style="block-progression:tb;line-height:100%;text-indent:0;text-transform:none" xml:space="preserve"><tspan x="175.13899" y="303.03934">a</tspan></text>
    <text x="30.36483" y="303.03934" color="black" text-align="center" style="block-progression:tb;line-height:100%;text-indent:0;text-transform:none" xml:space="preserve"><tspan x="30.36483" y="303.03934">a</tspan></text>
   </g>
   <text x="53.141251" y="96.505669" color="black" font-size="21.176px" text-align="center" style="block-progression:tb;line-height:100%;text-indent:0;text-transform:none" xml:space="preserve"><tspan x="53.141251" y="96.505669">0,0</tspan></text>
  </g>
  <g transform="translate(-3.2493 -41.786)" fill="black" font-family="Tahoma" stroke-linecap="round" text-anchor="middle">
   <text x="102.85884" y="85.343491" color="black" font-size="35.521px" text-align="center" style="block-progression:tb;line-height:100%;text-indent:0;text-transform:none" xml:space="preserve"><tspan x="102.85884" y="85.343491">a</tspan></text>
   <text x="126.59309" y="96.505669" color="black" font-size="21.176px" text-align="center" style="block-progression:tb;line-height:100%;text-indent:0;text-transform:none" xml:space="preserve"><tspan x="126.59309" y="96.505669">0,1</tspan></text>
  </g>
  <g fill="black" font-family="Tahoma" font-size="21.176px" stroke-linecap="round" text-anchor="middle">
   <text x="199.18456" y="96.516006" color="black" text-align="center" style="block-progression:tb;line-height:100%;text-indent:0;text-transform:none" xml:space="preserve"><tspan x="199.18456" y="96.516006">0,2</tspan></text>
   <text x="271.77606" y="96.516006" color="black" text-align="center" style="block-progression:tb;line-height:100%;text-indent:0;text-transform:none" xml:space="preserve"><tspan x="271.77606" y="96.516006">0,3</tspan></text>
   <text x="53.786831" y="169.5267" color="black" text-align="center" style="block-progression:tb;line-height:100%;text-indent:0;text-transform:none" xml:space="preserve"><tspan x="53.786831" y="169.5267">1,0</tspan></text>
   <text x="271.77606" y="169.2838" color="black" text-align="center" style="block-progression:tb;line-height:100%;text-indent:0;text-transform:none" xml:space="preserve"><tspan x="271.77606" y="169.2838">1,3</tspan></text>
   <text x="53.395721" y="241.41621" color="black" text-align="center" style="block-progression:tb;line-height:100%;text-indent:0;text-transform:none" xml:space="preserve"><tspan x="53.395721" y="241.41621">2,0</tspan></text>
   <text x="198.47945" y="241.53378" color="black" text-align="center" style="block-progression:tb;line-height:100%;text-indent:0;text-transform:none" xml:space="preserve"><tspan x="198.47945" y="241.53378">2,2</tspan></text>
   <text x="271.37402" y="241.57297" color="black" text-align="center" style="block-progression:tb;line-height:100%;text-indent:0;text-transform:none" xml:space="preserve"><tspan x="271.37402" y="241.57297">2,3</tspan></text>
   <text x="53.4683" y="313.83795" color="black" text-align="center" style="block-progression:tb;line-height:100%;text-indent:0;text-transform:none" xml:space="preserve"><tspan x="53.4683" y="313.83795">3,0</tspan></text>
  </g>
  <g transform="translate(-2.3652 26.017)" fill="black" font-family="Tahoma" stroke-linecap="round" text-anchor="middle">
   <text x="102.64504" y="303.03934" color="black" font-size="35.521px" text-align="center" style="block-progression:tb;line-height:100%;text-indent:0;text-transform:none" xml:space="preserve"><tspan x="102.64504" y="303.03934">a</tspan></text>
   <text x="126.33759" y="313.98517" color="black" font-size="21.176px" text-align="center" style="block-progression:tb;line-height:100%;text-indent:0;text-transform:none" xml:space="preserve"><tspan x="126.33759" y="313.98517">3,1</tspan></text>
  </g>
  <text x="198.61806" y="313.98517" color="black" fill="black" font-family="Tahoma" font-size="21.176px" stroke-linecap="round" text-align="center" text-anchor="middle" style="block-progression:tb;line-height:100%;text-indent:0;text-transform:none" xml:space="preserve"><tspan x="198.61806" y="313.98517">3,2</tspan></text>
  <text x="271.48734" y="313.69073" color="black" fill="black" font-family="Tahoma" font-size="21.176px" stroke-linecap="round" text-align="center" text-anchor="middle" style="block-progression:tb;line-height:100%;text-indent:0;text-transform:none" xml:space="preserve"><tspan x="271.48734" y="313.69073">3,3</tspan></text>
  <g fill="#e0f7ff" stroke="#000" stroke-linejoin="round" stroke-miterlimit="4.4" stroke-width="1.6575">
   <rect x="513.89" y="42.84" width="72.352" height="72.352"/>
   <rect x="513.89" y="115.17" width="72.352" height="72.352"/>
   <rect x="513.85" y="187.55" width="72.352" height="72.352"/>
   <rect x="513.85" y="259.87" width="72.352" height="72.352"/>
   <rect x="586.19" y="42.751" width="72.352" height="72.352"/>
   <rect x="586.19" y="115.08" width="72.352" height="72.352"/>
   <rect x="586.15" y="187.46" width="72.352" height="72.352"/>
   <rect x="586.15" y="259.78" width="72.352" height="72.352"/>
   <rect x="658.53" y="42.754" width="72.352" height="72.352"/>
   <rect x="658.53" y="115.08" width="72.352" height="72.352"/>
   <rect x="658.49" y="187.46" width="72.352" height="72.352"/>
   <rect x="658.49" y="259.79" width="72.352" height="72.352"/>
  </g>
  <g stroke="#000">
   <g transform="matrix(.84963 0 0 .84963 464.32 -116.27)">
    <rect x="131.04" y="129.08" width="110.28" height="110.28" fill="#ffd589" stroke-linejoin="round" stroke-miterlimit="4.4" stroke-width="3.6434"/>
    <path d="m138.36 240.48v8.2988l114.14 0.09846-0.19692-114.09h-9.2553l-0.29538 106.15-104.4-0.46418z" color="black" stroke-linecap="round"/>
   </g>
   <g transform="matrix(.84963 0 0 .84963 464.25 -22.402)">
    <rect x="131.04" y="129.08" width="110.28" height="110.28" fill="#ffd589" stroke-linejoin="round" stroke-miterlimit="4.4" stroke-width="3.6434"/>
    <path d="m138.36 240.48v8.2988l114.14 0.09846-0.19692-114.09h-9.2553l-0.29538 106.15-104.4-0.46418z" color="black" stroke-linecap="round"/>
   </g>
   <g transform="matrix(.84963 0 0 .84963 464.34 71.351)">
    <rect x="131.04" y="129.08" width="110.28" height="110.28" fill="#ffd589" stroke-linejoin="round" stroke-miterlimit="4.4" stroke-width="3.6434"/>
    <path d="m138.36 240.48v8.2988l114.14 0.09846-0.19692-114.09h-9.2553l-0.29538 106.15-104.4-0.46418z" color="black" stroke-linecap="round"/>
   </g>
   <g transform="matrix(.84963 0 0 .84963 464.47 165.08)">
    <rect x="131.04" y="129.08" width="110.28" height="110.28" fill="#ffd589" stroke-linejoin="round" stroke-miterlimit="4.4" stroke-width="3.6434"/>
    <path d="m138.36 240.48v8.2988l114.14 0.09846-0.19692-114.09h-9.2553l-0.29538 106.15-104.4-0.46418z" color="black" stroke-linecap="round"/>
   </g>
  </g>
  <g fill="#e0f7ff" stroke="#000" stroke-linejoin="round" stroke-miterlimit="4.4" stroke-width="1.6575">
   <rect x="730.84" y="42.665" width="72.352" height="72.352"/>
   <rect x="730.84" y="114.99" width="72.352" height="72.352"/>
   <rect x="730.79" y="187.37" width="72.352" height="72.352"/>
   <rect x="730.79" y="259.7" width="72.352" height="72.352"/>
  </g>
  <g fill="black" font-family="Tahoma" stroke-linecap="round" text-anchor="middle">
   <text x="682.51666" y="302.10681" color="black" font-size="35.521px" text-align="center" style="block-progression:tb;line-height:100%;text-indent:0;text-transform:none" xml:space="preserve"><tspan x="682.51666" y="302.10681">b</tspan></text>
   <text x="706.13269" y="168.35127" color="black" font-size="21.176px" text-align="center" style="block-progression:tb;line-height:100%;text-indent:0;text-transform:none" xml:space="preserve"><tspan x="706.13269" y="168.35127">1,2</tspan></text>
   <g font-size="35.521px">
    <text x="537.37701" y="84.410988" color="black" text-align="center" style="block-progression:tb;line-height:100%;text-indent:0;text-transform:none" xml:space="preserve"><tspan x="537.37701" y="84.410988">b</tspan></text>
    <text x="682.73053" y="84.410988" color="black" text-align="center" style="block-progression:tb;line-height:100%;text-indent:0;text-transform:none" xml:space="preserve"><tspan x="682.73053" y="84.410988">b</tspan></text>
    <text x="755.65222" y="84.410988" color="black" text-align="center" style="block-progression:tb;line-height:100%;text-indent:0;text-transform:none" xml:space="preserve"><tspan x="755.65222" y="84.410988">b</tspan></text>
    <text x="755.65222" y="156.90498" color="black" text-align="center" style="block-progression:tb;line-height:100%;text-indent:0;text-transform:none" xml:space="preserve"><tspan x="755.65222" y="156.90498">b</tspan></text>
    <text x="682.73053" y="156.90498" color="black" text-align="center" style="block-progression:tb;line-height:100%;text-indent:0;text-transform:none" xml:space="preserve"><tspan x="682.73053" y="156.90498">b</tspan></text>
    <text x="537.52869" y="156.90498" color="black" text-align="center" style="block-progression:tb;line-height:100%;text-indent:0;text-transform:none" xml:space="preserve"><tspan x="537.52869" y="156.90498">b</tspan></text>
   </g>
  </g>
  <g>
   <rect x="323.04" y="342.62" width="126.51" height="71.492" fill="#fff" stroke="#000" stroke-linejoin="round" stroke-miterlimit="4.4" stroke-width="4"/>
   <path d="m389.39 389.26c-1.3751 0-2.6365-0.21225-3.7844-0.63672-1.1479-0.42449-2.1343-1.0672-2.9594-1.9281-0.82503-0.8609-1.4647-1.946-1.9191-3.2553s-0.68155-2.8488-0.68155-4.6184c0-1.7577 0.23615-3.2762 0.70846-4.5556 0.47229-1.2794 1.103-2.3555 1.8922-3.2284 0.78916-0.87284 1.7726-1.5454 2.9504-2.0178 1.1778-0.47228 2.4422-0.70844 3.7934-0.70846 1.1 2e-5 2.1612 0.15547 3.1836 0.46633 1.0223 0.3109 1.934 0.66961 2.7352 1.0761v3.7844h-0.1973c-0.23915-0.20326-0.54704-0.43642-0.92367-0.69949-0.37667-0.26304-0.83403-0.53206-1.3721-0.8071-0.46633-0.23912-1.0164-0.44837-1.6501-0.62775-0.63373-0.17933-1.2436-0.26901-1.8294-0.26903-1.7458 2e-5 -3.1477 0.66065-4.2059 1.9819-1.0582 1.3213-1.5873 3.1896-1.5873 5.6049 0 2.3675 0.51114 4.2119 1.5335 5.5331 1.0223 1.3213 2.4422 1.9819 4.2597 1.9819 1.1 0 2.1463-0.22717 3.1387-0.68155 0.99241-0.45437 1.8712-1.0403 2.6365-1.7577h0.1973v3.7844c-0.33482 0.15543-0.75331 0.34375-1.2555 0.56497-0.50222 0.22119-0.95659 0.38561-1.3631 0.49322-0.57394 0.16739-1.0881 0.29593-1.5424 0.38562-0.45439 0.08967-1.0403 0.13452-1.7577 0.13452zm19.263 6.9411h-4.1072c-2.0805-2.4751-3.7156-5.0937-4.9054-7.8558-1.1897-2.7621-1.7846-6.0263-1.7846-9.7928 0-3.6828 0.58887-6.9261 1.7666-9.7301 1.1778-2.8039 2.8189-5.4434 4.9233-7.9186h4.1072v0.17935c-0.96853 0.8729-1.8922 1.8803-2.771 3.0222-0.87887 1.1419-1.6949 2.4722-2.4482 3.9907-0.71743 1.4708-1.3003 3.0909-1.7487 4.8606-0.44839 1.7697-0.67258 3.635-0.67258 5.5959 0 2.0447 0.21821 3.9159 0.65466 5.6138 0.43641 1.6979 1.0253 3.3121 1.7666 4.8426 0.71741 1.4707 1.5365 2.8009 2.4572 3.9907 0.92068 1.1897 1.8414 2.1971 2.7621 3.0222v0.17935zm19.335-7.3895h-4.1431l-4.8606-7.5688-5.004 7.5688h-3.8203l6.959-9.9363-6.8873-10.098h4.1431l4.8247 7.4971 4.9502-7.4971h3.8382l-6.9232 9.8646 6.9232 10.17zm12.34-10.259c0 3.6947-0.59188 6.9411-1.7756 9.739-1.1838 2.798-2.8219 5.4345-4.9143 7.9096h-4.1072v-0.17935c0.92068-0.82504 1.8474-1.8384 2.78-3.0401 0.93265-1.2017 1.7457-2.5259 2.4392-3.9727 0.74133-1.5425 1.3302-3.1716 1.7666-4.8874s0.65466-3.5722 0.65466-5.569c0-1.9729-0.22122-3.8382-0.66363-5.5959-0.44241-1.7577-1.0283-3.3779-1.7577-4.8606-0.7294-1.4827-1.5544-2.8159-2.4751-3.9996-0.92068-1.1837-1.8354-2.1881-2.7441-3.0132v-0.17935h4.1072c2.0805 2.4752 3.7156 5.1057 4.9054 7.8917 1.1897 2.786 1.7846 6.0383 1.7846 9.757z" color="black" style="block-progression:tb;text-indent:0;text-transform:none"/>
   <text x="537.52869" y="229.3242" color="black" fill="black" font-family="Tahoma" font-size="35.521px" stroke-linecap="round" text-align="center" text-anchor="middle" style="block-progression:tb;line-height:100%;text-indent:0;text-transform:none" xml:space="preserve"><tspan x="537.52869" y="229.3242">b</tspan></text>
  </g>
  <g transform="translate(-.78841 2.6126)" fill="black" font-family="Tahoma" stroke-linecap="round" text-anchor="middle">
   <text x="633.37402" y="240.4249" color="black" font-size="21.176px" text-align="center" style="block-progression:tb;line-height:100%;text-indent:0;text-transform:none" xml:space="preserve"><tspan x="633.37402" y="240.4249">2,1</tspan></text>
   <text x="610.02271" y="229.18513" color="black" font-size="35.521px" text-align="center" style="block-progression:tb;line-height:100%;text-indent:0;text-transform:none" xml:space="preserve"><tspan x="610.02271" y="229.18513">b</tspan></text>
  </g>
  <g fill="black" font-family="Tahoma" stroke-linecap="round" text-anchor="middle">
   <g font-size="35.521px">
    <text x="682.73053" y="229.18513" color="black" text-align="center" style="block-progression:tb;line-height:100%;text-indent:0;text-transform:none" xml:space="preserve"><tspan x="682.73053" y="229.18513">b</tspan></text>
    <text x="755.22455" y="229.18513" color="black" text-align="center" style="block-progression:tb;line-height:100%;text-indent:0;text-transform:none" xml:space="preserve"><tspan x="755.22455" y="229.18513">b</tspan></text>
    <text x="755.22455" y="302.03201" color="black" text-align="center" style="block-progression:tb;line-height:100%;text-indent:0;text-transform:none" xml:space="preserve"><tspan x="755.22455" y="302.03201">b</tspan></text>
    <text x="537.74249" y="302.10681" color="black" text-align="center" style="block-progression:tb;line-height:100%;text-indent:0;text-transform:none" xml:space="preserve"><tspan x="537.74249" y="302.10681">b</tspan></text>
   </g>
   <text x="560.51892" y="95.573158" color="black" font-size="21.176px" text-align="center" style="block-progression:tb;line-height:100%;text-indent:0;text-transform:none" xml:space="preserve"><tspan x="560.51892" y="95.573158">0,0</tspan></text>
  </g>
  <g transform="translate(-.97971 -41.254)" fill="black" font-family="Tahoma" stroke-linecap="round" text-anchor="middle">
   <text x="610.23651" y="84.410988" color="black" font-size="35.521px" text-align="center" style="block-progression:tb;line-height:100%;text-indent:0;text-transform:none" xml:space="preserve"><tspan x="610.23651" y="84.410988">b</tspan></text>
   <text x="633.97076" y="95.573158" color="black" font-size="21.176px" text-align="center" style="block-progression:tb;line-height:100%;text-indent:0;text-transform:none" xml:space="preserve"><tspan x="633.97076" y="95.573158">0,1</tspan></text>
  </g>
  <g fill="black" font-family="Tahoma" font-size="21.176px" stroke-linecap="round" text-anchor="middle">
   <text x="706.56226" y="95.583496" color="black" text-align="center" style="block-progression:tb;line-height:100%;text-indent:0;text-transform:none" xml:space="preserve"><tspan x="706.56226" y="95.583496">0,2</tspan></text>
   <text x="779.15375" y="95.583496" color="black" text-align="center" style="block-progression:tb;line-height:100%;text-indent:0;text-transform:none" xml:space="preserve"><tspan x="779.15375" y="95.583496">0,3</tspan></text>
   <text x="561.16449" y="168.59418" color="black" text-align="center" style="block-progression:tb;line-height:100%;text-indent:0;text-transform:none" xml:space="preserve"><tspan x="561.16449" y="168.59418">1,0</tspan></text>
  </g>
  <g transform="translate(2.1103 -8.6725)" fill="black" font-family="Tahoma" stroke-linecap="round" text-anchor="middle">
   <text x="608.47998" y="145.7552" color="black" font-size="35.521px" text-align="center" style="block-progression:tb;line-height:100%;text-indent:0;text-transform:none" xml:space="preserve"><tspan x="608.47998" y="145.7552">b</tspan></text>
   <text x="632.85577" y="157.20149" color="black" font-size="21.176px" text-align="center" style="block-progression:tb;line-height:100%;text-indent:0;text-transform:none" xml:space="preserve"><tspan x="632.85577" y="157.20149">1,1</tspan></text>
  </g>
  <g fill="black" font-family="Tahoma" font-size="21.176px" stroke-linecap="round" text-anchor="middle">
   <text x="779.15375" y="168.35127" color="black" text-align="center" style="block-progression:tb;line-height:100%;text-indent:0;text-transform:none" xml:space="preserve"><tspan x="779.15375" y="168.35127">1,3</tspan></text>
   <text x="560.77338" y="240.4837" color="black" text-align="center" style="block-progression:tb;line-height:100%;text-indent:0;text-transform:none" xml:space="preserve"><tspan x="560.77338" y="240.4837">2,0</tspan></text>
   <text x="705.85712" y="240.60126" color="black" text-align="center" style="block-progression:tb;line-height:100%;text-indent:0;text-transform:none" xml:space="preserve"><tspan x="705.85712" y="240.60126">2,2</tspan></text>
   <text x="778.75171" y="240.64044" color="black" text-align="center" style="block-progression:tb;line-height:100%;text-indent:0;text-transform:none" xml:space="preserve"><tspan x="778.75171" y="240.64044">2,3</tspan></text>
   <text x="560.84595" y="312.90543" color="black" text-align="center" style="block-progression:tb;line-height:100%;text-indent:0;text-transform:none" xml:space="preserve"><tspan x="560.84595" y="312.90543">3,0</tspan></text>
  </g>
  <g transform="translate(-.22086 26.209)" fill="black" font-family="Tahoma" stroke-linecap="round" text-anchor="middle">
   <text x="610.02271" y="302.10681" color="black" font-size="35.521px" text-align="center" style="block-progression:tb;line-height:100%;text-indent:0;text-transform:none" xml:space="preserve"><tspan x="610.02271" y="302.10681">b</tspan></text>
   <text x="633.71527" y="313.05261" color="black" font-size="21.176px" text-align="center" style="block-progression:tb;line-height:100%;text-indent:0;text-transform:none" xml:space="preserve"><tspan x="633.71527" y="313.05261">3,1</tspan></text>
  </g>
  <g>
   <text x="705.99573" y="313.05264" color="black" fill="black" font-family="Tahoma" font-size="21.176px" stroke-linecap="round" text-align="center" text-anchor="middle" style="block-progression:tb;line-height:100%;text-indent:0;text-transform:none" xml:space="preserve"><tspan x="705.99573" y="313.05264">3,2</tspan></text>
   <text x="778.86499" y="312.75821" color="black" fill="black" font-family="Tahoma" font-size="21.176px" stroke-linecap="round" text-align="center" text-anchor="middle" style="block-progression:tb;line-height:100%;text-indent:0;text-transform:none" xml:space="preserve"><tspan x="778.86499" y="312.75821">3,3</tspan></text>
   <path d="m342.37 98.841c-5.6527 0-9.8986 4.1005-9.8987 8.657l0.06898 37.077c0 4.5566 4.246 8.657 9.8987 8.657h125.2c5.6527 0 9.8987-4.066 9.8987-8.6225l-0.06898-37.146c0-4.5566-4.246-8.6225-9.8987-8.6225h-125.2z" fill="#ffece9" stroke="#000" stroke-linejoin="round" stroke-miterlimit="4.4" stroke-width="3.3111"/>
   <path d="m315.25 184.86h144.56v-15.531l35.243 17.621-34.944 18.517v-15.232h-145.15l0.29867-5.376z" color="black" stroke="#000" stroke-linecap="round" stroke-width="1.1017"/>
   <g stroke-linecap="round">
    <text x="405.08572" y="131.50134" color="black" fill="black" font-family="Tahoma" font-size="21.946px" text-align="center" text-anchor="middle" style="block-progression:tb;line-height:100%;text-indent:0;text-transform:none" xml:space="preserve"><tspan x="405.08572" y="131.50134">MixColumns</tspan></text>
    <path d="m626.43 258.62-8.4485 10.836 5.4181 0.09183c-33.867 45.021-73.91 76.328-171.9 94.733l-0.33491 3.8902c87.157-17.864 131.01-35.682 175.27-98.072l5.1426 0.27549-5.1426-11.754z" color="black" stroke="#000"/>
    <path d="m116.66 269.75c31.806 55.096 103.33 87.915 204.07 99.17l0.33491 3.8902c-88.511-13.126-166.99-32.578-207.44-102.51l3.0304-0.55099z" color="black" stroke="#000"/>
   </g>
  </g>
  <g fill="none" stroke="#000" stroke-width="2">
   <path transform="translate(-2.3536 -1.7652)" d="m371.58 380.58a18.535 18.535 0 1 1-37.07 0 18.535 18.535 0 1 1 37.07 0z"/>
   <path d="m337.16 391.76 26.478-25.596" color="black" stroke-linecap="round"/>
   <path d="m337.84 365.82 25.596 26.478" color="black" stroke-linecap="round"/>
  </g>
 </g>
</svg>
