<?xml version="1.0" encoding="UTF-8"?>
<!-- Created with Inkscape (http://www.inkscape.org/) -->
<svg width="810" height="420" version="1.0" xmlns="http://www.w3.org/2000/svg" xmlns:cc="http://creativecommons.org/ns#" xmlns:dc="http://purl.org/dc/elements/1.1/" xmlns:rdf="http://www.w3.org/1999/02/22-rdf-syntax-ns#">
 <metadata>
  <rdf:RDF>
   <cc:Work rdf:about="">
    <dc:format>image/svg+xml</dc:format>
    <dc:type rdf:resource="http://purl.org/dc/dcmitype/StillImage"/>
   </cc:Work>
  </rdf:RDF>
 </metadata>
 <g>
  <g fill="#e0f7ff" stroke="#000" stroke-linejoin="round" stroke-miterlimit="4.4" stroke-width="1.6575">
   <rect x="7.5151" y="17.598" width="72.352" height="72.352"/>
   <rect x="7.5151" y="89.923" width="72.352" height="72.352"/>
   <rect x="7.4722" y="162.3" width="72.352" height="72.352"/>
   <rect x="7.4722" y="234.63" width="72.352" height="72.352"/>
   <rect x="79.819" y="17.508" width="72.352" height="72.352"/>
   <rect x="79.819" y="89.833" width="72.352" height="72.352"/>
   <rect x="79.776" y="162.22" width="72.352" height="72.352"/>
   <rect x="79.776" y="234.54" width="72.352" height="72.352"/>
   <rect x="152.16" y="17.512" width="72.352" height="72.352"/>
   <rect x="152.16" y="89.837" width="72.352" height="72.352"/>
   <rect x="152.12" y="162.22" width="72.352" height="72.352"/>
   <rect x="152.12" y="234.54" width="72.352" height="72.352"/>
   <rect x="224.46" y="17.422" width="72.352" height="72.352"/>
   <rect x="224.46" y="89.747" width="72.352" height="72.352"/>
   <rect x="224.42" y="162.13" width="72.352" height="72.352"/>
   <rect x="224.42" y="234.45" width="72.352" height="72.352"/>
  </g>
  <g fill="#000000" font-family="Tahoma" stroke-linecap="round" text-anchor="middle">
   <text x="199.758" y="143.10899" font-size="21.176px" text-align="center" style="line-height:0%;text-decoration-line:none;text-indent:0pt;text-transform:none" xml:space="preserve"><tspan x="199.758" y="143.10899">1,2</tspan></text>
   <g font-size="35.521px">
    <text x="31.001801" y="59.1684" text-align="center" style="line-height:0%;text-decoration-line:none;text-indent:0pt;text-transform:none" xml:space="preserve"><tspan x="31.001801" y="59.1684">a</tspan></text>
    <text x="176.355" y="59.1684" text-align="center" style="line-height:0%;text-decoration-line:none;text-indent:0pt;text-transform:none" xml:space="preserve"><tspan x="176.355" y="59.1684">a</tspan></text>
    <text x="249.27699" y="59.1684" text-align="center" style="line-height:0%;text-decoration-line:none;text-indent:0pt;text-transform:none" xml:space="preserve"><tspan x="249.27699" y="59.1684">a</tspan></text>
    <text x="249.27699" y="131.662" text-align="center" style="line-height:0%;text-decoration-line:none;text-indent:0pt;text-transform:none" xml:space="preserve"><tspan x="249.27699" y="131.662">a</tspan></text>
    <text x="176.355" y="131.662" text-align="center" style="line-height:0%;text-decoration-line:none;text-indent:0pt;text-transform:none" xml:space="preserve"><tspan x="176.355" y="131.662">a</tspan></text>
   </g>
  </g>
  <g transform="translate(1.0025 -26.175)" fill="#000000" font-family="Tahoma" stroke-linecap="round" text-anchor="middle">
   <text x="126.593" y="169.284" font-size="21.176px" text-align="center" style="line-height:0%;text-decoration-line:none;text-indent:0pt;text-transform:none" xml:space="preserve"><tspan x="126.593" y="169.284">1,1</tspan></text>
   <text x="102.217" y="157.83701" font-size="35.521px" text-align="center" style="line-height:0%;text-decoration-line:none;text-indent:0pt;text-transform:none" xml:space="preserve"><tspan x="102.217" y="157.83701">a</tspan></text>
  </g>
  <text x="31.1535" y="131.662" fill="#000000" font-family="Tahoma" font-size="35.521px" stroke-linecap="round" text-align="center" text-anchor="middle" style="line-height:0%;text-decoration-line:none;text-indent:0pt;text-transform:none" xml:space="preserve"><tspan x="31.1535" y="131.662">a</tspan></text>
  <text x="31.1535" y="204.082" fill="#000000" font-family="Tahoma" font-size="35.521px" stroke-linecap="round" text-align="center" text-anchor="middle" style="line-height:0%;text-decoration-line:none;text-indent:0pt;text-transform:none" xml:space="preserve"><tspan x="31.1535" y="204.082">a</tspan></text>
  <g transform="translate(1.0025 -26.175)" fill="#000000" font-family="Tahoma" stroke-linecap="round" text-anchor="middle">
   <text x="125.996" y="241.35699" font-size="21.176px" text-align="center" style="line-height:0%;text-decoration-line:none;text-indent:0pt;text-transform:none" xml:space="preserve"><tspan x="125.996" y="241.35699">2,1</tspan></text>
   <text x="102.645" y="230.118" font-size="35.521px" text-align="center" style="line-height:0%;text-decoration-line:none;text-indent:0pt;text-transform:none" xml:space="preserve"><tspan x="102.645" y="230.118">a</tspan></text>
  </g>
  <g transform="matrix(.84963 0 0 .84963 28.576 41.566)" stroke="#000">
   <rect x="131.04" y="129.08" width="110.28" height="110.28" fill="#ffd589" stroke-linejoin="round" stroke-miterlimit="4.4" stroke-width="3.6434"/>
   <path d="m138.36 240.48v8.2988l114.14 0.09846-0.19692-114.09h-9.2553l-0.29538 106.15-104.4-0.46418z" stroke-linecap="round"/>
  </g>
  <g fill="#000000" font-family="Tahoma" stroke-linecap="round" text-anchor="middle">
   <g font-size="35.521px">
    <text x="176.355" y="203.94299" text-align="center" style="line-height:0%;text-decoration-line:none;text-indent:0pt;text-transform:none" xml:space="preserve"><tspan x="176.355" y="203.94299">a</tspan></text>
    <text x="248.849" y="203.94299" text-align="center" style="line-height:0%;text-decoration-line:none;text-indent:0pt;text-transform:none" xml:space="preserve"><tspan x="248.849" y="203.94299">a</tspan></text>
    <text x="248.849" y="276.789" text-align="center" style="line-height:0%;text-decoration-line:none;text-indent:0pt;text-transform:none" xml:space="preserve"><tspan x="248.849" y="276.789">a</tspan></text>
    <text x="176.14101" y="276.86401" text-align="center" style="line-height:0%;text-decoration-line:none;text-indent:0pt;text-transform:none" xml:space="preserve"><tspan x="176.14101" y="276.86401">a</tspan></text>
    <text x="31.3673" y="276.86401" text-align="center" style="line-height:0%;text-decoration-line:none;text-indent:0pt;text-transform:none" xml:space="preserve"><tspan x="31.3673" y="276.86401">a</tspan></text>
   </g>
   <text x="54.1437" y="70.330597" font-size="21.176px" text-align="center" style="line-height:0%;text-decoration-line:none;text-indent:0pt;text-transform:none" xml:space="preserve"><tspan x="54.1437" y="70.330597">0,0</tspan></text>
  </g>
  <g transform="translate(1.0025 -26.175)" fill="#000000" font-family="Tahoma" stroke-linecap="round" text-anchor="middle">
   <text x="102.859" y="85.343498" font-size="35.521px" text-align="center" style="line-height:0%;text-decoration-line:none;text-indent:0pt;text-transform:none" xml:space="preserve"><tspan x="102.859" y="85.343498">a</tspan></text>
   <text x="126.593" y="96.505699" font-size="21.176px" text-align="center" style="line-height:0%;text-decoration-line:none;text-indent:0pt;text-transform:none" xml:space="preserve"><tspan x="126.593" y="96.505699">0,1</tspan></text>
  </g>
  <g fill="#000000" font-family="Tahoma" font-size="21.176px" stroke-linecap="round" text-anchor="middle">
   <text x="200.187" y="70.340897" text-align="center" style="line-height:0%;text-decoration-line:none;text-indent:0pt;text-transform:none" xml:space="preserve"><tspan x="200.187" y="70.340897">0,2</tspan></text>
   <text x="272.77899" y="70.340897" text-align="center" style="line-height:0%;text-decoration-line:none;text-indent:0pt;text-transform:none" xml:space="preserve"><tspan x="272.77899" y="70.340897">0,3</tspan></text>
   <text x="54.789299" y="143.35201" text-align="center" style="line-height:0%;text-decoration-line:none;text-indent:0pt;text-transform:none" xml:space="preserve"><tspan x="54.789299" y="143.35201">1,0</tspan></text>
   <text x="272.77899" y="143.10899" text-align="center" style="line-height:0%;text-decoration-line:none;text-indent:0pt;text-transform:none" xml:space="preserve"><tspan x="272.77899" y="143.10899">1,3</tspan></text>
   <text x="54.398201" y="215.241" text-align="center" style="line-height:0%;text-decoration-line:none;text-indent:0pt;text-transform:none" xml:space="preserve"><tspan x="54.398201" y="215.241">2,0</tspan></text>
   <text x="199.48199" y="215.35899" text-align="center" style="line-height:0%;text-decoration-line:none;text-indent:0pt;text-transform:none" xml:space="preserve"><tspan x="199.48199" y="215.35899">2,2</tspan></text>
   <text x="272.37601" y="215.39799" text-align="center" style="line-height:0%;text-decoration-line:none;text-indent:0pt;text-transform:none" xml:space="preserve"><tspan x="272.37601" y="215.39799">2,3</tspan></text>
   <text x="54.470798" y="287.66299" text-align="center" style="line-height:0%;text-decoration-line:none;text-indent:0pt;text-transform:none" xml:space="preserve"><tspan x="54.470798" y="287.66299">3,0</tspan></text>
  </g>
  <g transform="translate(1.0025 -26.175)" fill="#000000" font-family="Tahoma" stroke-linecap="round" text-anchor="middle">
   <text x="102.645" y="303.039" font-size="35.521px" text-align="center" style="line-height:0%;text-decoration-line:none;text-indent:0pt;text-transform:none" xml:space="preserve"><tspan x="102.645" y="303.039">a</tspan></text>
   <text x="126.338" y="313.98499" font-size="21.176px" text-align="center" style="line-height:0%;text-decoration-line:none;text-indent:0pt;text-transform:none" xml:space="preserve"><tspan x="126.338" y="313.98499">3,1</tspan></text>
  </g>
  <text x="199.621" y="287.81" fill="#000000" font-family="Tahoma" font-size="21.176px" stroke-linecap="round" text-align="center" text-anchor="middle" style="line-height:0%;text-decoration-line:none;text-indent:0pt;text-transform:none" xml:space="preserve"><tspan x="199.621" y="287.81">3,2</tspan></text>
  <text x="272.48999" y="287.51599" fill="#000000" font-family="Tahoma" font-size="21.176px" stroke-linecap="round" text-align="center" text-anchor="middle" style="line-height:0%;text-decoration-line:none;text-indent:0pt;text-transform:none" xml:space="preserve"><tspan x="272.48999" y="287.51599">3,3</tspan></text>
  <g fill="#e0f7ff" stroke="#000" stroke-linejoin="round" stroke-miterlimit="4.4" stroke-width="1.6575">
   <rect x="514.89" y="16.665" width="72.352" height="72.352"/>
   <rect x="514.89" y="88.99" width="72.352" height="72.352"/>
   <rect x="514.85" y="161.37" width="72.352" height="72.352"/>
   <rect x="514.85" y="233.7" width="72.352" height="72.352"/>
   <rect x="587.2" y="16.575" width="72.352" height="72.352"/>
   <rect x="587.2" y="88.901" width="72.352" height="72.352"/>
   <rect x="587.15" y="161.28" width="72.352" height="72.352"/>
   <rect x="587.15" y="233.61" width="72.352" height="72.352"/>
   <rect x="659.54" y="16.579" width="72.352" height="72.352"/>
   <rect x="659.54" y="88.905" width="72.352" height="72.352"/>
   <rect x="659.49" y="161.29" width="72.352" height="72.352"/>
   <rect x="659.49" y="233.61" width="72.352" height="72.352"/>
   <rect x="731.84" y="16.49" width="72.352" height="72.352"/>
   <rect x="731.84" y="88.815" width="72.352" height="72.352"/>
   <rect x="731.8" y="161.2" width="72.352" height="72.352"/>
   <rect x="731.8" y="233.52" width="72.352" height="72.352"/>
  </g>
  <g fill="#000000" font-family="Tahoma" stroke-linecap="round" text-anchor="middle">
   <text x="683.51898" y="275.93201" font-size="35.521px" text-align="center" style="line-height:0%;text-decoration-line:none;text-indent:0pt;text-transform:none" xml:space="preserve"><tspan x="683.51898" y="275.93201">b</tspan></text>
   <text x="634.37701" y="214.25" font-size="21.176px" text-align="center" style="line-height:0%;text-decoration-line:none;text-indent:0pt;text-transform:none" xml:space="preserve"><tspan x="634.37701" y="214.25">2,1</tspan></text>
   <text x="707.13501" y="142.17599" font-size="21.176px" text-align="center" style="line-height:0%;text-decoration-line:none;text-indent:0pt;text-transform:none" xml:space="preserve"><tspan x="707.13501" y="142.17599">1,2</tspan></text>
   <g font-size="35.521px">
    <text x="538.38" y="58.235901" text-align="center" style="line-height:0%;text-decoration-line:none;text-indent:0pt;text-transform:none" xml:space="preserve"><tspan x="538.38" y="58.235901">b</tspan></text>
    <text x="611.23901" y="58.235901" text-align="center" style="line-height:0%;text-decoration-line:none;text-indent:0pt;text-transform:none" xml:space="preserve"><tspan x="611.23901" y="58.235901">b</tspan></text>
    <text x="683.73297" y="58.235901" text-align="center" style="line-height:0%;text-decoration-line:none;text-indent:0pt;text-transform:none" xml:space="preserve"><tspan x="683.73297" y="58.235901">b</tspan></text>
    <text x="756.65503" y="58.235901" text-align="center" style="line-height:0%;text-decoration-line:none;text-indent:0pt;text-transform:none" xml:space="preserve"><tspan x="756.65503" y="58.235901">b</tspan></text>
    <text x="756.65503" y="130.73" text-align="center" style="line-height:0%;text-decoration-line:none;text-indent:0pt;text-transform:none" xml:space="preserve"><tspan x="756.65503" y="130.73">b</tspan></text>
    <text x="683.73297" y="130.73" text-align="center" style="line-height:0%;text-decoration-line:none;text-indent:0pt;text-transform:none" xml:space="preserve"><tspan x="683.73297" y="130.73">b</tspan></text>
    <text x="610.59698" y="130.73" text-align="center" style="line-height:0%;text-decoration-line:none;text-indent:0pt;text-transform:none" xml:space="preserve"><tspan x="610.59698" y="130.73">b</tspan></text>
    <text x="538.53101" y="130.73" text-align="center" style="line-height:0%;text-decoration-line:none;text-indent:0pt;text-transform:none" xml:space="preserve"><tspan x="538.53101" y="130.73">b</tspan></text>
    <text x="538.53101" y="203.149" text-align="center" style="line-height:0%;text-decoration-line:none;text-indent:0pt;text-transform:none" xml:space="preserve"><tspan x="538.53101" y="203.149">b</tspan></text>
    <text x="611.02502" y="203.00999" text-align="center" style="line-height:0%;text-decoration-line:none;text-indent:0pt;text-transform:none" xml:space="preserve"><tspan x="611.02502" y="203.00999">b</tspan></text>
   </g>
  </g>
  <g transform="matrix(.84963 0 0 .84963 536.66 41.112)" stroke="#000">
   <rect x="131.04" y="129.08" width="110.28" height="110.28" fill="#ffd589" stroke-linejoin="round" stroke-miterlimit="4.4" stroke-width="3.6434"/>
   <path d="m138.36 240.48v8.2988l114.14 0.09846-0.19692-114.09h-9.2553l-0.29538 106.15-104.4-0.46418z" stroke-linecap="round"/>
  </g>
  <g fill="#000000" font-family="Tahoma" stroke-linecap="round" text-anchor="middle">
   <g font-size="35.521px">
    <text x="683.73297" y="203.00999" text-align="center" style="line-height:0%;text-decoration-line:none;text-indent:0pt;text-transform:none" xml:space="preserve"><tspan x="683.73297" y="203.00999">b</tspan></text>
    <text x="756.22699" y="203.00999" text-align="center" style="line-height:0%;text-decoration-line:none;text-indent:0pt;text-transform:none" xml:space="preserve"><tspan x="756.22699" y="203.00999">b</tspan></text>
    <text x="756.22699" y="275.85699" text-align="center" style="line-height:0%;text-decoration-line:none;text-indent:0pt;text-transform:none" xml:space="preserve"><tspan x="756.22699" y="275.85699">b</tspan></text>
    <text x="611.02502" y="275.93201" text-align="center" style="line-height:0%;text-decoration-line:none;text-indent:0pt;text-transform:none" xml:space="preserve"><tspan x="611.02502" y="275.93201">b</tspan></text>
    <text x="538.745" y="275.93201" text-align="center" style="line-height:0%;text-decoration-line:none;text-indent:0pt;text-transform:none" xml:space="preserve"><tspan x="538.745" y="275.93201">b</tspan></text>
   </g>
   <g font-size="21.176px">
    <text x="561.521" y="69.398102" text-align="center" style="line-height:0%;text-decoration-line:none;text-indent:0pt;text-transform:none" xml:space="preserve"><tspan x="561.521" y="69.398102">0,0</tspan></text>
    <text x="634.97302" y="69.398102" text-align="center" style="line-height:0%;text-decoration-line:none;text-indent:0pt;text-transform:none" xml:space="preserve"><tspan x="634.97302" y="69.398102">0,1</tspan></text>
    <text x="707.565" y="69.408401" text-align="center" style="line-height:0%;text-decoration-line:none;text-indent:0pt;text-transform:none" xml:space="preserve"><tspan x="707.565" y="69.408401">0,2</tspan></text>
    <text x="780.15601" y="69.408401" text-align="center" style="line-height:0%;text-decoration-line:none;text-indent:0pt;text-transform:none" xml:space="preserve"><tspan x="780.15601" y="69.408401">0,3</tspan></text>
    <text x="562.16699" y="142.41901" text-align="center" style="line-height:0%;text-decoration-line:none;text-indent:0pt;text-transform:none" xml:space="preserve"><tspan x="562.16699" y="142.41901">1,0</tspan></text>
    <text x="634.97302" y="142.17599" text-align="center" style="line-height:0%;text-decoration-line:none;text-indent:0pt;text-transform:none" xml:space="preserve"><tspan x="634.97302" y="142.17599">1,1</tspan></text>
    <text x="780.15601" y="142.17599" text-align="center" style="line-height:0%;text-decoration-line:none;text-indent:0pt;text-transform:none" xml:space="preserve"><tspan x="780.15601" y="142.17599">1,3</tspan></text>
    <text x="561.776" y="214.30901" text-align="center" style="line-height:0%;text-decoration-line:none;text-indent:0pt;text-transform:none" xml:space="preserve"><tspan x="561.776" y="214.30901">2,0</tspan></text>
    <text x="706.85999" y="214.42599" text-align="center" style="line-height:0%;text-decoration-line:none;text-indent:0pt;text-transform:none" xml:space="preserve"><tspan x="706.85999" y="214.42599">2,2</tspan></text>
    <text x="779.75403" y="214.465" text-align="center" style="line-height:0%;text-decoration-line:none;text-indent:0pt;text-transform:none" xml:space="preserve"><tspan x="779.75403" y="214.465">2,3</tspan></text>
    <text x="561.84802" y="286.73001" text-align="center" style="line-height:0%;text-decoration-line:none;text-indent:0pt;text-transform:none" xml:space="preserve"><tspan x="561.84802" y="286.73001">3,0</tspan></text>
    <text x="634.71802" y="286.87799" text-align="center" style="line-height:0%;text-decoration-line:none;text-indent:0pt;text-transform:none" xml:space="preserve"><tspan x="634.71802" y="286.87799">3,1</tspan></text>
    <text x="706.99799" y="286.87799" text-align="center" style="line-height:0%;text-decoration-line:none;text-indent:0pt;text-transform:none" xml:space="preserve"><tspan x="706.99799" y="286.87799">3,2</tspan></text>
    <text x="779.867" y="286.58301" text-align="center" style="line-height:0%;text-decoration-line:none;text-indent:0pt;text-transform:none" xml:space="preserve"><tspan x="779.867" y="286.58301">3,3</tspan></text>
   </g>
  </g>
  <path d="m343.37 72.666c-5.6527 0-9.8986 4.1005-9.8987 8.657l0.06898 37.077c0 4.5566 4.246 8.657 9.8987 8.657h125.2c5.6527 0 9.8987-4.066 9.8987-8.6225l-0.06898-37.146c0-4.5566-4.246-8.6225-9.8987-8.6225h-125.2z" fill="#ebffc2" stroke="#000" stroke-linejoin="round" stroke-miterlimit="4.4" stroke-width="3.311"/>
  <path d="m316.25 158.68h144.56v-15.531l35.243 17.621-34.944 18.517v-15.232h-145.15l0.29867-5.376z" stroke="#000" stroke-linecap="round" stroke-width="1.1017"/>
  <g>
   <text x="406.80756" y="108.80666" fill="#000000" font-family="'Nimbus Roman No9 L'" font-size="30px" stroke-linecap="round" text-align="center" text-anchor="middle" style="line-height:0%;text-decoration-line:none;text-indent:0pt;text-transform:none" xml:space="preserve"><tspan x="406.80756" y="108.80666" font-family="'Nimbus Roman No9 L'" font-size="30px" text-align="center" text-anchor="middle" style="line-height:100%">SubBytes</tspan></text>
   <path d="m675.75 217.42-16.648 11.444 5.7218 4.1411c-101.22 153.21-346.88 193.28-470.76-8.842l-5.5864 0.18067c124.41 209.41 382.33 168.74 480.7 10.933l6.0537 3.4137 0.52642-21.27z" stroke="#000" stroke-linecap="round"/>
   <rect x="394.65" y="329.04" width="74.246" height="74.246" fill="#fff" stroke="#000" stroke-linejoin="round" stroke-miterlimit="4.4" stroke-width="2"/>
   <text x="431.51099" y="380.75101" fill="#000000" font-family="Tahoma" font-size="40.124px" stroke-linecap="round" text-align="center" text-anchor="middle" style="line-height:0%;text-decoration-line:none;text-indent:0pt;text-transform:none" xml:space="preserve"><tspan x="431.51099" y="380.75101">S</tspan></text>
  </g>
 </g>
</svg>
