<?xml version="1.0" encoding="UTF-8"?>
<!-- Created with Inkscape (http://www.inkscape.org/) -->
<svg width="810" height="300" version="1.0" xmlns="http://www.w3.org/2000/svg">
 <g>
  <g stroke="#000">
   <path d="m385.38 55.812c-5.1217 0-8.9687 3.7152-8.9688 7.8438l0.0625 33.594c0 4.1285 3.8471 7.8438 8.9688 7.8438h113.44c5.1217 0 8.9688-3.684 8.9688-7.8125l-0.0625-33.656c0-4.1285-3.8471-7.8125-8.9688-7.8125h-113.44z" fill="#ffffb9" stroke-linejoin="round" stroke-miterlimit="4.4" stroke-width="3"/>
   <g>
    <path d="m360.29 135.44h131.21v-14.097l31.99 15.995-31.718 16.808v-13.826h-131.75l0.2711-4.8798z" color="black" stroke-linecap="round"/>
    <g stroke-linejoin="round" stroke-miterlimit="4.4" stroke-width="1.5">
     <rect x="540.85" y="6.3897" width="65.476" height="65.476" fill="#e0f7ff"/>
     <rect x="540.85" y="71.842" width="65.476" height="65.476" fill="#caf1ff"/>
     <rect x="540.81" y="137.34" width="65.476" height="65.476" fill="#b2ebff"/>
     <rect x="540.81" y="202.8" width="65.476" height="65.476" fill="#8ee1ff"/>
     <rect x="606.28" y="6.3086" width="65.476" height="65.476" fill="#caf1ff"/>
     <rect x="606.28" y="71.761" width="65.476" height="65.476" fill="#b2ebff"/>
     <rect x="606.24" y="137.26" width="65.476" height="65.476" fill="#8ee1ff"/>
     <rect x="606.24" y="202.72" width="65.476" height="65.476" fill="#e0f7ff"/>
     <rect x="671.74" y="6.312" width="65.476" height="65.476" fill="#b2ebff"/>
     <rect x="671.74" y="71.764" width="65.476" height="65.476" fill="#8ee1ff"/>
     <rect x="671.71" y="137.27" width="65.476" height="65.476" fill="#e0f7ff"/>
     <rect x="671.71" y="202.72" width="65.476" height="65.476" fill="#caf1ff"/>
     <rect x="737.18" y="6.2309" width="65.476" height="65.476" fill="#8ee1ff"/>
     <rect x="737.18" y="71.683" width="65.476" height="65.476" fill="#e0f7ff"/>
     <rect x="737.14" y="137.19" width="65.476" height="65.476" fill="#caf1ff"/>
     <rect x="737.14" y="202.64" width="65.476" height="65.476" fill="#b2ebff"/>
    </g>
   </g>
  </g>
  <g fill="#e0f7ff" stroke="#000" stroke-linejoin="round" stroke-miterlimit="4.4" stroke-width="1.5">
   <rect x="81.802" y="6.4416" width="65.476" height="65.476"/>
   <rect x="81.802" y="71.894" width="65.476" height="65.476"/>
   <rect x="81.763" y="137.4" width="65.476" height="65.476"/>
   <rect x="81.763" y="202.85" width="65.476" height="65.476"/>
  </g>
  <g fill="#caf1ff" stroke="#000" stroke-linejoin="round" stroke-miterlimit="4.4" stroke-width="1.5">
   <rect x="147.23" y="6.3606" width="65.476" height="65.476"/>
   <rect x="147.23" y="71.813" width="65.476" height="65.476"/>
   <rect x="147.2" y="137.32" width="65.476" height="65.476"/>
   <rect x="147.2" y="202.77" width="65.476" height="65.476"/>
  </g>
  <g fill="#b2ebff" stroke="#000" stroke-linejoin="round" stroke-miterlimit="4.4" stroke-width="1.5">
   <rect x="212.7" y="6.3639" width="65.476" height="65.476"/>
   <rect x="212.7" y="71.816" width="65.476" height="65.476"/>
   <rect x="212.66" y="137.32" width="65.476" height="65.476"/>
   <rect x="212.66" y="202.77" width="65.476" height="65.476"/>
  </g>
  <g fill="#8ee1ff" stroke="#000" stroke-linejoin="round" stroke-miterlimit="4.4" stroke-width="1.5">
   <rect x="278.13" y="6.2829" width="65.476" height="65.476"/>
   <rect x="278.13" y="71.735" width="65.476" height="65.476"/>
   <rect x="278.09" y="137.24" width="65.476" height="65.476"/>
   <rect x="278.09" y="202.69" width="65.476" height="65.476"/>
  </g>
  <g fill="black" font-family="Tahoma" stroke-linecap="round" text-anchor="middle">
   <text x="443.25745" y="88.870483" color="black" font-size="25.4px" letter-spacing="1px" text-align="center" style="block-progression:tb;line-height:100%;text-indent:0;text-transform:none" xml:space="preserve"><tspan x="443.25745" y="88.870483">ShiftRows</tspan></text>
   <g font-size="32.146px">
    <text x="562.80042" y="44.061871" color="black" text-align="center" style="block-progression:tb;line-height:100%;text-indent:0;text-transform:none" xml:space="preserve"><tspan x="562.80042" y="44.061871">a</tspan></text>
    <text x="628.73578" y="44.061871" color="black" text-align="center" style="block-progression:tb;line-height:100%;text-indent:0;text-transform:none" xml:space="preserve"><tspan x="628.73578" y="44.061871">a</tspan></text>
    <text x="694.34039" y="44.061871" color="black" text-align="center" style="block-progression:tb;line-height:100%;text-indent:0;text-transform:none" xml:space="preserve"><tspan x="694.34039" y="44.061871">a</tspan></text>
    <text x="760.33203" y="44.061871" color="black" text-align="center" style="block-progression:tb;line-height:100%;text-indent:0;text-transform:none" xml:space="preserve"><tspan x="760.33203" y="44.061871">a</tspan></text>
    <text x="760.33203" y="109.66647" color="black" text-align="center" style="block-progression:tb;line-height:100%;text-indent:0;text-transform:none" xml:space="preserve"><tspan x="760.33203" y="109.66647">a</tspan></text>
    <text x="694.34039" y="109.66647" color="black" text-align="center" style="block-progression:tb;line-height:100%;text-indent:0;text-transform:none" xml:space="preserve"><tspan x="694.34039" y="109.66647">a</tspan></text>
    <text x="628.15521" y="109.66647" color="black" text-align="center" style="block-progression:tb;line-height:100%;text-indent:0;text-transform:none" xml:space="preserve"><tspan x="628.15521" y="109.66647">a</tspan></text>
    <text x="562.93768" y="109.66647" color="black" text-align="center" style="block-progression:tb;line-height:100%;text-indent:0;text-transform:none" xml:space="preserve"><tspan x="562.93768" y="109.66647">a</tspan></text>
    <text x="562.93768" y="175.2034" color="black" text-align="center" style="block-progression:tb;line-height:100%;text-indent:0;text-transform:none" xml:space="preserve"><tspan x="562.93768" y="175.2034">a</tspan></text>
    <text x="628.5423" y="175.07755" color="black" text-align="center" style="block-progression:tb;line-height:100%;text-indent:0;text-transform:none" xml:space="preserve"><tspan x="628.5423" y="175.07755">a</tspan></text>
    <text x="694.34039" y="175.07755" color="black" text-align="center" style="block-progression:tb;line-height:100%;text-indent:0;text-transform:none" xml:space="preserve"><tspan x="694.34039" y="175.07755">a</tspan></text>
    <text x="759.94501" y="175.07755" color="black" text-align="center" style="block-progression:tb;line-height:100%;text-indent:0;text-transform:none" xml:space="preserve"><tspan x="759.94501" y="175.07755">a</tspan></text>
    <text x="759.94501" y="241.00153" color="black" text-align="center" style="block-progression:tb;line-height:100%;text-indent:0;text-transform:none" xml:space="preserve"><tspan x="759.94501" y="241.00153">a</tspan></text>
    <text x="694.14685" y="241.0692" color="black" text-align="center" style="block-progression:tb;line-height:100%;text-indent:0;text-transform:none" xml:space="preserve"><tspan x="694.14685" y="241.0692">a</tspan></text>
    <text x="628.5423" y="241.0692" color="black" text-align="center" style="block-progression:tb;line-height:100%;text-indent:0;text-transform:none" xml:space="preserve"><tspan x="628.5423" y="241.0692">a</tspan></text>
    <text x="563.13116" y="241.0692" color="black" text-align="center" style="block-progression:tb;line-height:100%;text-indent:0;text-transform:none" xml:space="preserve"><tspan x="563.13116" y="241.0692">a</tspan></text>
    <text x="103.05627" y="44.061871" color="black" text-align="center" style="block-progression:tb;line-height:100%;text-indent:0;text-transform:none" xml:space="preserve"><tspan x="103.05627" y="44.061871">a</tspan></text>
    <text x="168.99162" y="44.061871" color="black" text-align="center" style="block-progression:tb;line-height:100%;text-indent:0;text-transform:none" xml:space="preserve"><tspan x="168.99162" y="44.061871">a</tspan></text>
    <text x="234.59624" y="44.061871" color="black" text-align="center" style="block-progression:tb;line-height:100%;text-indent:0;text-transform:none" xml:space="preserve"><tspan x="234.59624" y="44.061871">a</tspan></text>
    <text x="300.58789" y="44.061871" color="black" text-align="center" style="block-progression:tb;line-height:100%;text-indent:0;text-transform:none" xml:space="preserve"><tspan x="300.58789" y="44.061871">a</tspan></text>
    <text x="300.58789" y="109.66647" color="black" text-align="center" style="block-progression:tb;line-height:100%;text-indent:0;text-transform:none" xml:space="preserve"><tspan x="300.58789" y="109.66647">a</tspan></text>
    <text x="234.59624" y="109.66647" color="black" text-align="center" style="block-progression:tb;line-height:100%;text-indent:0;text-transform:none" xml:space="preserve"><tspan x="234.59624" y="109.66647">a</tspan></text>
    <text x="168.41106" y="109.66647" color="black" text-align="center" style="block-progression:tb;line-height:100%;text-indent:0;text-transform:none" xml:space="preserve"><tspan x="168.41106" y="109.66647">a</tspan></text>
    <text x="103.19353" y="109.66647" color="black" text-align="center" style="block-progression:tb;line-height:100%;text-indent:0;text-transform:none" xml:space="preserve"><tspan x="103.19353" y="109.66647">a</tspan></text>
    <text x="103.19353" y="175.2034" color="black" text-align="center" style="block-progression:tb;line-height:100%;text-indent:0;text-transform:none" xml:space="preserve"><tspan x="103.19353" y="175.2034">a</tspan></text>
    <text x="168.79814" y="175.07755" color="black" text-align="center" style="block-progression:tb;line-height:100%;text-indent:0;text-transform:none" xml:space="preserve"><tspan x="168.79814" y="175.07755">a</tspan></text>
    <text x="234.59624" y="175.07755" color="black" text-align="center" style="block-progression:tb;line-height:100%;text-indent:0;text-transform:none" xml:space="preserve"><tspan x="234.59624" y="175.07755">a</tspan></text>
    <text x="300.20087" y="175.07755" color="black" text-align="center" style="block-progression:tb;line-height:100%;text-indent:0;text-transform:none" xml:space="preserve"><tspan x="300.20087" y="175.07755">a</tspan></text>
    <text x="300.20087" y="241.00151" color="black" text-align="center" style="block-progression:tb;line-height:100%;text-indent:0;text-transform:none" xml:space="preserve"><tspan x="300.20087" y="241.00151">a</tspan></text>
    <text x="234.40269" y="241.0692" color="black" text-align="center" style="block-progression:tb;line-height:100%;text-indent:0;text-transform:none" xml:space="preserve"><tspan x="234.40269" y="241.0692">a</tspan></text>
    <text x="168.79814" y="241.0692" color="black" text-align="center" style="block-progression:tb;line-height:100%;text-indent:0;text-transform:none" xml:space="preserve"><tspan x="168.79814" y="241.0692">a</tspan></text>
    <text x="103.38702" y="241.0692" color="black" text-align="center" style="block-progression:tb;line-height:100%;text-indent:0;text-transform:none" xml:space="preserve"><tspan x="103.38702" y="241.0692">a</tspan></text>
   </g>
   <g font-size="21.529px">
    <text x="39.432507" y="31.97784" color="black" text-align="center" style="block-progression:tb;line-height:100%;text-indent:0;text-transform:none" xml:space="preserve"><tspan x="39.432507" y="31.97784">No</tspan><tspan x="39.432507" y="53.507111"/></text>
    <text x="39.881367" y="58.100506" color="black" text-align="center" style="block-progression:tb;line-height:100%;text-indent:0;text-transform:none" xml:space="preserve"><tspan x="39.881367" y="58.100506">change</tspan></text>
    <text x="40.593536" y="113.88695" color="black" text-align="center" style="block-progression:tb;line-height:100%;text-indent:0;text-transform:none" xml:space="preserve"><tspan x="40.593536" y="113.88695">Shift 1</tspan></text>
    <text x="40.834457" y="179.18697" color="black" text-align="center" style="block-progression:tb;line-height:100%;text-indent:0;text-transform:none" xml:space="preserve"><tspan x="40.834457" y="179.18697">Shift 2</tspan></text>
    <text x="40.593536" y="245.40051" color="black" text-align="center" style="block-progression:tb;line-height:100%;text-indent:0;text-transform:none" xml:space="preserve"><tspan x="40.593536" y="245.40051">Shift 3</tspan></text>
   </g>
  </g>
  <g stroke="#000" stroke-linecap="round">
   <path d="m56.065 251.49v2.0143h-20.143v5.4768l-12.254-6.1482 12.222-6.3787-0.0367 5.1146 20.211-0.07882z" color="black"/>
   <path d="m56.129 186.03v2.0143h-20.143v5.4768l-12.254-6.1482 12.222-6.3787-0.0367 5.1146 20.211-0.07882z" color="black"/>
   <path d="m56.055 120.19v2.0143h-20.143v5.4768l-12.254-6.1482 12.222-6.3787-0.0367 5.1146 20.211-0.07882z" color="black"/>
   <path d="m253.49 129.38 1.468 14.68 4.9913-3.3764c12.48 13.41 27.62 1.3975 43.6-18.644l-2.0552-1.468c-9.696 12.357-28.543 32.796-39.49 18.791l4.2573-3.2296-12.772-6.7529z" color="black" opacity=".5"/>
   <path d="m187.8 129.38 1.468 14.68 4.9913-3.3764c12.48 13.41 27.62 1.3975 43.6-18.644l-2.0552-1.468c-9.696 12.357-28.543 32.796-39.49 18.791l4.2573-3.2296-12.772-6.7529z" color="black" opacity=".5"/>
   <path d="m122.57 129.38 1.468 14.68 4.9913-3.3764c12.48 13.41 27.62 1.3975 43.6-18.644l-2.0552-1.468c-9.696 12.357-28.543 32.796-39.49 18.791l4.2573-3.2296-12.772-6.7529z" color="black" opacity=".5"/>
   <path d="m121.47 195.31 1.468 14.68 4.9913-3.3764c22.246 21.326 94.927 14.213 109.57-18.781l-2.0552-1.468c-6.2301 24.412-75.227 43.082-105.46 18.928l4.2573-3.2296-12.772-6.7529z" color="black" opacity=".5"/>
   <path d="m187.27 195.19 1.468 14.68 4.9913-3.3764c22.246 21.326 94.927 14.213 109.57-18.781l-2.0552-1.468c-7.7022 25.001-75.227 43.082-105.46 18.928l4.2573-3.2296-12.772-6.7529z" color="black" opacity=".5"/>
   <path d="m121.75 261.15 1.468 14.68 4.9913-3.3764c29.406 41.137 164.81 24.202 175.53-19.331l-2.8798-0.64342c-11.438 41.379-144.64 57.4-170.6 18.653l4.2573-3.2296-12.772-6.7529z" color="black" opacity=".5"/>
  </g>
  <g fill="black" font-family="Tahoma" font-size="19.163px" stroke-linecap="round" text-anchor="middle">
   <text x="123.9989" y="54.163258" color="black" text-align="center" style="block-progression:tb;line-height:100%;text-indent:0;text-transform:none" xml:space="preserve"><tspan x="123.9989" y="54.163258">0,0</tspan></text>
   <text x="190.47031" y="54.163258" color="black" text-align="center" style="block-progression:tb;line-height:100%;text-indent:0;text-transform:none" xml:space="preserve"><tspan x="190.47031" y="54.163258">0,1</tspan></text>
   <text x="256.16312" y="54.172615" color="black" text-align="center" style="block-progression:tb;line-height:100%;text-indent:0;text-transform:none" xml:space="preserve"><tspan x="256.16312" y="54.172615">0,2</tspan></text>
   <text x="321.85596" y="54.172615" color="black" text-align="center" style="block-progression:tb;line-height:100%;text-indent:0;text-transform:none" xml:space="preserve"><tspan x="321.85596" y="54.172615">0,3</tspan></text>
   <text x="124.58313" y="120.2448" color="black" text-align="center" style="block-progression:tb;line-height:100%;text-indent:0;text-transform:none" xml:space="preserve"><tspan x="124.58313" y="120.2448">1,0</tspan></text>
   <text x="190.47031" y="120.02499" color="black" text-align="center" style="block-progression:tb;line-height:100%;text-indent:0;text-transform:none" xml:space="preserve"><tspan x="190.47031" y="120.02499">1,1</tspan></text>
   <text x="255.77441" y="120.02499" color="black" text-align="center" style="block-progression:tb;line-height:100%;text-indent:0;text-transform:none" xml:space="preserve"><tspan x="255.77441" y="120.02499">1,2</tspan></text>
   <text x="321.85596" y="120.02499" color="black" text-align="center" style="block-progression:tb;line-height:100%;text-indent:0;text-transform:none" xml:space="preserve"><tspan x="321.85596" y="120.02499">1,3</tspan></text>
   <text x="584.41351" y="120.04781" color="black" text-align="center" style="block-progression:tb;line-height:100%;text-indent:0;text-transform:none" xml:space="preserve"><tspan x="584.41351" y="120.04781">1,1</tspan></text>
   <text x="649.71759" y="120.04781" color="black" text-align="center" style="block-progression:tb;line-height:100%;text-indent:0;text-transform:none" xml:space="preserve"><tspan x="649.71759" y="120.04781">1,2</tspan></text>
   <text x="715.79913" y="120.04781" color="black" text-align="center" style="block-progression:tb;line-height:100%;text-indent:0;text-transform:none" xml:space="preserve"><tspan x="715.79913" y="120.04781">1,3</tspan></text>
   <text x="781.24036" y="120.15303" color="black" text-align="center" style="block-progression:tb;line-height:100%;text-indent:0;text-transform:none" xml:space="preserve"><tspan x="781.24036" y="120.15303">1,0</tspan></text>
   <text x="584.40167" y="54.066818" color="black" text-align="center" style="block-progression:tb;line-height:100%;text-indent:0;text-transform:none" xml:space="preserve"><tspan x="584.40167" y="54.066818">0,0</tspan></text>
   <text x="650.87311" y="54.066818" color="black" text-align="center" style="block-progression:tb;line-height:100%;text-indent:0;text-transform:none" xml:space="preserve"><tspan x="650.87311" y="54.066818">0,1</tspan></text>
   <text x="716.56592" y="54.076176" color="black" text-align="center" style="block-progression:tb;line-height:100%;text-indent:0;text-transform:none" xml:space="preserve"><tspan x="716.56592" y="54.076176">0,2</tspan></text>
   <text x="782.25873" y="54.076176" color="black" text-align="center" style="block-progression:tb;line-height:100%;text-indent:0;text-transform:none" xml:space="preserve"><tspan x="782.25873" y="54.076176">0,3</tspan></text>
   <text x="124.22919" y="185.30235" color="black" text-align="center" style="block-progression:tb;line-height:100%;text-indent:0;text-transform:none" xml:space="preserve"><tspan x="124.22919" y="185.30235">2,0</tspan></text>
   <text x="189.9303" y="185.24915" color="black" text-align="center" style="block-progression:tb;line-height:100%;text-indent:0;text-transform:none" xml:space="preserve"><tspan x="189.9303" y="185.24915">2,1</tspan></text>
   <text x="255.52501" y="185.40875" color="black" text-align="center" style="block-progression:tb;line-height:100%;text-indent:0;text-transform:none" xml:space="preserve"><tspan x="255.52501" y="185.40875">2,2</tspan></text>
   <text x="321.49213" y="185.44421" color="black" text-align="center" style="block-progression:tb;line-height:100%;text-indent:0;text-transform:none" xml:space="preserve"><tspan x="321.49213" y="185.44421">2,3</tspan></text>
   <text x="716.28076" y="185.40636" color="black" text-align="center" style="block-progression:tb;line-height:100%;text-indent:0;text-transform:none" xml:space="preserve"><tspan x="716.28076" y="185.40636">2,0</tspan></text>
   <text x="781.74823" y="185.39128" color="black" text-align="center" style="block-progression:tb;line-height:100%;text-indent:0;text-transform:none" xml:space="preserve"><tspan x="781.74823" y="185.39128">2,1</tspan></text>
   <text x="584.26324" y="185.48471" color="black" text-align="center" style="block-progression:tb;line-height:100%;text-indent:0;text-transform:none" xml:space="preserve"><tspan x="584.26324" y="185.48471">2,2</tspan></text>
   <text x="649.85004" y="185.33177" color="black" text-align="center" style="block-progression:tb;line-height:100%;text-indent:0;text-transform:none" xml:space="preserve"><tspan x="649.85004" y="185.33177">2,3</tspan></text>
   <text x="124.29487" y="250.84158" color="black" text-align="center" style="block-progression:tb;line-height:100%;text-indent:0;text-transform:none" xml:space="preserve"><tspan x="124.29487" y="250.84158">3,0</tspan></text>
   <text x="190.23909" y="250.97479" color="black" text-align="center" style="block-progression:tb;line-height:100%;text-indent:0;text-transform:none" xml:space="preserve"><tspan x="190.23909" y="250.97479">3,1</tspan></text>
   <text x="255.65045" y="250.97481" color="black" text-align="center" style="block-progression:tb;line-height:100%;text-indent:0;text-transform:none" xml:space="preserve"><tspan x="255.65045" y="250.97481">3,2</tspan></text>
   <text x="321.59467" y="250.70836" color="black" text-align="center" style="block-progression:tb;line-height:100%;text-indent:0;text-transform:none" xml:space="preserve"><tspan x="321.59467" y="250.70836">3,3</tspan></text>
   <text x="650.54535" y="250.97325" color="black" text-align="center" style="block-progression:tb;line-height:100%;text-indent:0;text-transform:none" xml:space="preserve"><tspan x="650.54535" y="250.97325">3,0</tspan></text>
   <text x="716.41595" y="251.03287" color="black" text-align="center" style="block-progression:tb;line-height:100%;text-indent:0;text-transform:none" xml:space="preserve"><tspan x="716.41595" y="251.03287">3,1</tspan></text>
   <text x="781.82733" y="251.03288" color="black" text-align="center" style="block-progression:tb;line-height:100%;text-indent:0;text-transform:none" xml:space="preserve"><tspan x="781.82733" y="251.03288">3,2</tspan></text>
   <text x="584.76172" y="250.84003" color="black" text-align="center" style="block-progression:tb;line-height:100%;text-indent:0;text-transform:none" xml:space="preserve"><tspan x="584.76172" y="250.84003">3,3</tspan></text>
  </g>
 </g>
</svg>
